<svg width="25" height="25" viewBox="0 0 25 25" fill="none" xmlns="http://www.w3.org/2000/svg">
<path fill-rule="evenodd" clip-rule="evenodd" d="M5.80078 21.5996C5.25078 21.5996 4.77978 21.4036 4.38778 21.0116C3.99578 20.6196 3.80012 20.1489 3.80078 19.5996V5.59961C3.80078 5.04961 3.99678 4.57861 4.38878 4.18661C4.78078 3.79461 5.25145 3.59895 5.80078 3.59961H19.8008C20.3508 3.59961 20.8218 3.79561 21.2138 4.18761C21.6058 4.57961 21.8015 5.05028 21.8008 5.59961V19.5996C21.8008 20.1496 21.6048 20.6206 21.2128 21.0126C20.8208 21.4046 20.3501 21.6003 19.8008 21.5996H5.80078ZM5.80078 19.5996H19.8008V5.59961H5.80078V19.5996ZM6.80078 17.5996H18.8008L15.0508 12.5996L12.0508 16.5996L9.80078 13.5996L6.80078 17.5996Z" fill="black"/>
</svg>
